<svg xmlns="http://www.w3.org/2000/svg" viewBox="0 0 32 32">
  <!-- Body -->
  <ellipse cx="16" cy="21" rx="9" ry="8" fill="#111"/>
  <!-- Head -->
  <circle cx="16" cy="11" r="7" fill="#111"/>
  <!-- Left ear -->
  <polygon points="8,6 6,0 12,4" fill="#111"/>
  <!-- Right ear -->
  <polygon points="24,6 26,0 20,4" fill="#111"/>
  <!-- Left eye -->
  <ellipse cx="13" cy="10" rx="1.5" ry="2" fill="#f0c040"/>
  <ellipse cx="13" cy="10" rx="0.6" ry="2" fill="#111"/>
  <!-- Right eye -->
  <ellipse cx="19" cy="10" rx="1.5" ry="2" fill="#f0c040"/>
  <ellipse cx="19" cy="10" rx="0.6" ry="2" fill="#111"/>
  <!-- Nose -->
  <polygon points="16,13 14.5,14.5 17.5,14.5" fill="#ff9999"/>
  <!-- Tail -->
  <path d="M25,26 Q32,20 30,14 Q28,10 26,14 Q28,20 22,24" fill="#111" stroke="none"/>
  <!-- Whiskers left -->
  <line x1="9" y1="13" x2="2" y2="12" stroke="#555" stroke-width="0.8"/>
  <line x1="9" y1="14.5" x2="2" y2="15" stroke="#555" stroke-width="0.8"/>
  <!-- Whiskers right -->
  <line x1="23" y1="13" x2="30" y2="12" stroke="#555" stroke-width="0.8"/>
  <line x1="23" y1="14.5" x2="30" y2="15" stroke="#555" stroke-width="0.8"/>
</svg>